<svg width="18" height="22" viewBox="0 0 18 22" fill="none" xmlns="http://www.w3.org/2000/svg">
<path fill-rule="evenodd" clip-rule="evenodd" d="M0 2.98516C0 1.3365 1.34315 0 3 0H15C16.6569 0 18 1.3365 18 2.98516V20.5474C18 21.7539 16.6054 22.4327 15.6483 21.6919L9 16.5466L2.35174 21.6919C1.39461 22.4326 0 21.7539 0 20.5474V2.98516ZM3 2.55871C2.76331 2.55871 2.57143 2.74964 2.57143 2.98516V18.2803L7.68441 14.3232C8.45822 13.7244 9.54178 13.7244 10.3156 14.3232L15.4286 18.2803V2.98516C15.4286 2.74964 15.2367 2.55871 15 2.55871H3Z" fill="white"/>
</svg>
